<?xml version="1.0" encoding="UTF-8" ?>
<!DOCTYPE svg PUBLIC "-//W3C//DTD SVG 1.1//EN" "http://www.w3.org/Graphics/SVG/1.1/DTD/svg11.dtd">
<svg width="1420pt" height="640pt" viewBox="0 0 1420 640" version="1.1" xmlns="http://www.w3.org/2000/svg">
<g id="#fefefeff">
</g>
<g id="#010201ff">
<path fill="#010201" opacity="1.00" d=" M 389.84 38.78 C 411.26 20.56 440.10 11.54 468.08 13.71 C 486.75 15.23 505.30 21.37 520.34 32.70 C 547.96 52.21 565.16 85.27 566.14 118.99 C 566.43 141.06 566.10 163.13 566.23 185.21 C 572.14 188.04 577.65 192.29 580.33 198.45 C 584.25 206.38 583.99 216.11 579.89 223.91 C 576.04 230.99 569.00 236.32 561.06 237.82 C 554.39 239.31 547.26 237.97 541.37 234.61 C 533.76 230.22 528.77 221.75 528.39 213.00 C 527.58 201.99 534.00 190.86 543.82 185.92 C 544.07 164.95 544.13 143.99 544.21 123.01 C 545.61 86.76 521.15 51.18 486.89 39.35 C 472.52 34.90 457.01 33.24 442.21 36.51 C 420.02 40.84 399.72 54.43 387.51 73.50 C 377.99 87.34 373.52 104.28 373.65 121.00 C 373.65 142.28 373.71 163.56 373.80 184.84 C 379.45 187.64 384.59 191.81 387.42 197.56 C 392.70 207.62 391.66 221.23 383.58 229.54 C 375.55 238.19 361.96 240.90 351.31 235.70 C 342.40 231.89 336.37 222.67 335.77 213.09 C 335.04 201.90 341.58 190.47 351.73 185.64 C 351.69 165.44 351.67 145.25 351.73 125.05 C 351.43 105.62 355.79 86.00 364.96 68.82 C 371.45 57.50 379.64 46.99 389.84 38.78 Z" />
</g>
<g id="#caffffff">
<path fill="#caffff" opacity="1.00" d=" M 582.00 116.95 C 584.42 115.58 587.32 115.77 590.01 115.65 C 600.34 115.66 610.68 115.58 621.01 115.66 C 632.75 115.97 644.71 119.39 653.69 127.22 C 663.34 135.50 669.79 147.23 672.10 159.71 C 673.78 172.15 674.58 184.71 676.30 197.15 C 677.50 214.95 679.81 232.64 681.36 250.40 C 682.72 257.89 682.56 265.55 683.89 273.04 C 684.58 278.69 685.04 284.38 685.51 290.05 C 685.96 292.26 684.31 294.75 681.91 294.49 C 669.29 294.54 656.66 294.39 644.04 294.50 C 641.43 294.57 638.85 294.08 636.32 293.52 C 635.58 290.74 635.25 287.87 635.15 285.00 C 631.79 256.72 629.56 228.31 626.17 200.02 C 624.81 190.97 625.60 181.29 621.21 172.95 C 617.37 164.54 608.94 158.80 600.05 156.94 C 594.49 155.62 588.66 157.13 583.15 155.68 C 581.25 155.48 581.71 153.36 581.50 152.00 C 581.28 142.34 581.43 132.67 581.36 123.00 C 581.40 120.98 581.29 118.88 582.00 116.95 M 583.32 117.52 C 583.30 129.87 583.44 142.23 583.41 154.59 C 588.95 154.64 594.57 154.11 600.04 155.24 C 613.11 157.67 624.21 168.67 625.93 181.98 C 630.09 218.79 633.54 255.69 637.44 292.54 C 653.04 292.51 668.64 292.68 684.25 292.56 C 679.99 254.73 676.32 216.84 672.41 178.97 C 671.38 170.09 671.28 160.98 668.32 152.44 C 665.70 143.54 660.49 135.51 653.56 129.37 C 645.07 121.52 633.48 117.66 622.03 117.47 C 609.13 117.36 596.22 117.35 583.32 117.52 Z" />
</g>
<g id="#d2805dff">
<path fill="#d2805d" opacity="1.00" d=" M 251.43 148.26 C 258.71 130.15 277.52 117.60 296.98 117.45 C 309.49 117.36 322.00 117.40 334.51 117.36 C 334.57 129.86 334.43 142.35 334.49 154.84 C 333.89 154.78 332.69 154.65 332.09 154.58 C 334.48 142.97 332.83 131.04 332.51 119.31 C 324.39 118.16 316.17 118.79 308.01 118.69 C 298.82 119.30 289.24 118.70 280.62 122.50 C 265.15 128.23 252.85 142.36 250.31 158.79 C 248.85 167.99 248.52 177.32 247.39 186.56 C 246.08 204.62 243.73 222.57 242.24 240.61 C 241.56 245.68 240.49 250.75 240.91 255.91 C 248.93 256.70 256.94 254.97 264.97 255.85 C 271.00 256.57 277.02 255.31 283.04 255.59 C 283.50 255.88 284.41 256.45 284.87 256.73 C 269.61 257.86 254.28 257.00 238.99 257.32 C 239.93 247.78 241.34 238.28 241.67 228.70 C 243.42 210.81 245.28 192.93 246.74 175.01 C 247.87 166.04 247.71 156.69 251.43 148.26 Z" />
</g>
<g id="#1ebcedff">
<path fill="#1ebced" opacity="1.00" d=" M 390.24 117.26 C 435.72 117.24 481.20 117.27 526.68 117.29 C 527.22 121.16 527.49 125.08 527.14 128.98 C 526.51 133.97 527.57 138.96 527.13 143.96 C 527.33 147.53 527.21 151.11 526.71 154.64 C 481.27 154.47 435.84 154.63 390.40 154.65 C 390.43 142.19 390.38 129.73 390.24 117.26 Z" />
<path fill="#1ebced" opacity="1.00" d=" M 583.32 117.52 C 596.22 117.35 609.13 117.36 622.03 117.47 C 633.48 117.66 645.07 121.52 653.56 129.37 C 660.49 135.51 665.70 143.54 668.32 152.44 C 671.28 160.98 671.38 170.09 672.41 178.97 C 676.32 216.84 679.99 254.73 684.25 292.56 C 668.64 292.68 653.04 292.51 637.44 292.54 C 633.54 255.69 630.09 218.79 625.93 181.98 C 624.21 168.67 613.11 157.67 600.04 155.24 C 594.57 154.11 588.95 154.64 583.41 154.59 C 583.44 142.23 583.30 129.87 583.32 117.52 Z" />
<path fill="#1ebced" opacity="1.00" d=" M 500.40 497.11 C 509.63 496.30 518.92 496.51 528.16 496.90 C 528.91 508.93 528.11 520.99 528.34 533.04 C 525.11 532.95 521.97 532.14 519.22 530.42 C 519.06 531.85 518.91 533.29 518.77 534.74 C 518.04 534.12 517.32 533.50 516.61 532.90 C 512.66 532.48 508.82 531.19 504.81 531.29 C 503.72 533.79 502.61 536.29 501.21 538.64 C 500.04 524.84 500.88 510.95 500.40 497.11 Z" />
<path fill="#1ebced" opacity="1.00" d=" M 652.61 505.43 C 663.94 503.05 675.54 504.17 687.01 503.86 C 691.25 503.56 695.35 505.53 699.58 504.64 C 699.51 504.67 699.38 504.75 699.31 504.78 C 700.51 505.90 701.18 507.43 702.00 508.83 C 702.77 512.58 700.98 516.64 702.57 520.18 C 702.58 522.19 702.59 524.22 702.62 526.25 L 705.06 524.32 C 704.18 530.80 703.50 537.45 704.61 543.95 C 704.16 550.73 706.74 557.27 706.13 564.06 C 703.68 564.46 705.02 567.30 704.66 569.02 C 703.18 571.00 703.58 573.73 702.89 576.01 C 699.39 583.94 695.24 591.82 688.75 597.74 C 680.76 605.18 670.68 610.49 659.88 612.29 C 646.62 613.92 633.23 613.18 619.93 612.91 C 613.26 613.71 606.59 612.34 599.92 612.98 C 594.95 613.47 589.99 612.65 585.01 612.79 C 574.62 612.81 564.23 612.79 553.84 612.76 C 553.61 605.98 553.81 599.21 553.76 592.43 C 560.86 592.41 567.97 592.65 575.07 592.38 C 582.76 592.11 590.11 587.62 593.93 580.94 C 597.04 575.82 597.32 569.64 597.47 563.81 C 606.30 563.73 615.14 563.81 623.98 563.73 C 633.18 563.82 642.36 559.66 648.29 552.63 C 651.44 548.83 653.97 544.26 654.02 539.19 C 654.29 538.91 654.84 538.33 655.11 538.04 C 654.64 533.45 654.72 528.83 655.15 524.25 C 654.82 524.29 654.17 524.38 653.85 524.42 C 653.89 518.07 653.95 511.67 652.61 505.43 Z" />
<path fill="#1ebced" opacity="1.00" d=" M 452.70 541.86 C 452.27 539.93 454.51 539.49 455.91 539.68 C 469.78 539.70 483.64 539.65 497.51 539.72 C 483.19 540.82 468.79 539.74 454.45 540.23 C 454.48 540.85 454.54 542.09 454.57 542.71 C 454.98 548.81 454.69 554.91 454.71 561.02 C 454.78 563.72 454.95 566.96 457.35 568.73 C 460.16 569.53 463.14 569.32 466.05 569.35 C 474.71 569.14 483.37 569.51 492.03 569.18 C 494.50 569.19 497.06 568.91 499.47 569.61 C 501.78 570.94 503.57 573.04 505.98 574.23 C 507.53 573.44 508.94 572.38 510.37 571.39 C 514.44 573.40 518.58 575.66 523.14 576.28 C 525.69 575.33 527.68 573.39 529.79 571.74 C 529.67 586.52 529.82 601.30 529.76 616.08 C 519.27 616.14 508.75 616.50 498.28 615.78 C 498.46 601.07 498.44 586.37 498.38 571.66 C 483.16 571.39 467.92 571.81 452.70 571.44 C 452.75 561.58 452.65 551.72 452.70 541.86 Z" />
</g>
<g id="#ff6f2bff">
<path fill="#ff6f2b" opacity="1.00" d=" M 280.62 122.50 C 289.24 118.70 298.82 119.30 308.01 118.69 C 316.17 118.79 324.39 118.16 332.51 119.31 C 332.83 131.04 334.48 142.97 332.09 154.58 C 327.12 154.57 322.03 154.09 317.19 155.51 C 311.36 156.95 306.19 160.27 301.75 164.22 C 295.35 169.50 292.75 177.92 291.92 185.90 C 290.03 204.28 288.21 222.67 286.18 241.04 C 285.70 246.26 284.88 251.47 284.87 256.73 C 284.41 256.45 283.50 255.88 283.04 255.59 C 277.02 255.31 271.00 256.57 264.97 255.85 C 256.94 254.97 248.93 256.70 240.91 255.91 C 240.49 250.75 241.56 245.68 242.24 240.61 C 243.73 222.57 246.08 204.62 247.39 186.56 C 248.52 177.32 248.85 167.99 250.31 158.79 C 252.85 142.36 265.15 128.23 280.62 122.50 Z" />
</g>
<g id="#fbd7bfff">
<path fill="#fbd7bf" opacity="1.00" d=" M 291.92 185.90 C 292.75 177.92 295.35 169.50 301.75 164.22 C 302.27 164.17 303.31 164.05 303.82 164.00 C 300.12 167.48 296.73 171.50 295.27 176.47 C 293.46 182.83 292.65 189.44 292.33 196.04 C 290.39 214.01 288.58 231.98 286.62 249.94 C 286.16 252.71 287.33 257.49 283.59 258.28 C 271.40 258.71 259.18 258.30 246.99 258.51 C 244.06 258.59 241.13 258.42 238.24 257.98 C 238.28 250.94 239.36 243.97 239.91 236.96 C 240.31 234.19 240.10 231.15 241.67 228.70 C 241.34 238.28 239.93 247.78 238.99 257.32 C 254.28 257.00 269.61 257.86 284.87 256.73 C 284.88 251.47 285.70 246.26 286.18 241.04 C 288.21 222.67 290.03 204.28 291.92 185.90 Z" />
</g>
<g id="#030303ff">
<path fill="#030303" opacity="1.00" d=" M 75.97 279.16 C 90.88 276.42 106.85 278.12 120.38 285.19 C 117.42 294.55 114.63 303.97 111.29 313.21 C 104.22 308.69 95.36 306.54 87.10 308.52 C 81.84 309.87 76.67 313.18 74.76 318.48 C 73.12 323.44 73.68 328.75 73.62 333.89 C 85.50 334.00 97.37 334.22 109.25 333.84 C 109.06 343.34 109.23 352.83 109.19 362.32 C 97.32 362.45 85.45 362.09 73.57 362.33 C 73.64 397.73 73.55 433.13 73.55 468.53 C 61.79 468.50 50.02 468.44 38.25 468.55 C 38.13 433.09 38.30 397.63 38.24 362.17 C 31.41 362.00 24.58 362.40 17.77 361.87 C 17.79 352.52 17.92 343.17 18.12 333.82 C 24.67 333.79 31.22 333.78 37.77 333.78 C 38.13 323.26 38.94 312.37 44.00 302.91 C 50.43 290.76 62.48 281.80 75.97 279.16 Z" />
<path fill="#030303" opacity="1.00" d=" M 456.63 341.70 C 473.23 331.47 493.77 328.42 512.85 331.78 C 528.31 334.65 543.23 342.61 552.69 355.41 C 562.31 367.40 567.36 382.72 567.53 398.03 C 567.63 402.63 567.50 407.24 567.25 411.84 C 531.79 411.93 496.32 411.85 460.87 412.26 C 463.78 422.23 470.02 431.60 479.23 436.73 C 490.70 442.85 504.44 443.11 516.90 440.34 C 525.13 438.50 532.62 433.89 538.08 427.47 C 544.00 434.94 550.50 441.90 556.85 449.00 C 547.15 460.09 533.58 467.50 519.08 469.95 C 496.97 473.77 472.73 471.03 453.91 458.07 C 439.42 448.75 429.49 433.01 426.42 416.15 C 424.02 402.66 424.80 388.48 429.43 375.54 C 434.55 361.76 443.92 349.31 456.63 341.70 M 473.01 368.00 C 466.28 373.78 462.28 382.01 460.14 390.50 C 484.30 390.80 508.47 390.38 532.63 390.65 C 531.54 383.26 528.96 375.87 523.77 370.33 C 511.20 356.06 487.05 355.72 473.01 368.00 Z" />
<path fill="#030303" opacity="1.00" d=" M 1061.10 332.58 C 1067.40 330.83 1074.00 331.20 1080.47 331.15 C 1080.58 341.96 1080.53 352.79 1080.39 363.61 C 1069.91 363.04 1058.68 363.81 1049.64 369.68 C 1040.35 376.25 1035.72 387.86 1035.67 399.00 C 1035.66 422.18 1035.75 445.35 1035.76 468.53 C 1023.80 468.56 1011.84 468.51 999.88 468.48 C 999.99 454.31 999.77 440.15 1000.09 425.99 C 1000.12 394.91 999.57 363.82 999.93 332.74 C 1001.15 332.13 1002.70 332.53 1004.06 332.40 C 1014.23 332.55 1024.40 332.50 1034.57 332.41 C 1034.54 338.39 1034.54 344.37 1034.56 350.35 C 1041.44 342.07 1050.49 335.13 1061.10 332.58 Z" />
<path fill="#030303" opacity="1.00" d=" M 1128.69 338.77 C 1152.28 327.06 1182.05 327.36 1204.63 341.33 C 1216.40 348.65 1225.15 360.28 1229.77 373.27 C 1234.52 385.50 1234.91 398.83 1234.17 411.78 C 1198.95 411.95 1163.71 411.88 1128.49 412.20 C 1131.03 422.77 1138.06 432.25 1147.80 437.21 C 1156.45 441.44 1166.36 442.71 1175.88 441.69 C 1187.04 440.65 1198.14 436.09 1205.72 427.63 C 1211.63 435.09 1218.29 441.90 1224.71 448.92 C 1213.92 461.38 1198.25 469.12 1181.92 470.78 C 1160.79 473.23 1138.21 469.88 1120.45 457.58 C 1108.32 449.53 1098.99 437.10 1095.21 423.00 C 1089.83 404.12 1091.53 383.13 1100.79 365.72 C 1107.25 354.33 1116.86 344.56 1128.69 338.77 M 1149.08 362.21 C 1137.67 367.13 1129.59 378.37 1127.80 390.58 C 1151.79 390.75 1175.78 390.73 1199.77 390.58 C 1198.92 381.89 1194.83 373.50 1188.41 367.58 C 1177.80 358.35 1161.83 357.03 1149.08 362.21 Z" />
</g>
<g id="#040403ff">
<path fill="#040403" opacity="1.00" d=" M 281.16 280.76 C 292.93 280.75 304.70 280.79 316.47 280.73 C 316.26 317.19 316.58 353.65 316.65 390.11 C 336.65 371.32 355.76 351.59 375.58 332.62 C 389.48 332.76 403.39 332.54 417.29 332.79 C 399.57 351.58 381.53 370.06 363.60 388.65 C 368.64 394.62 373.03 401.10 377.62 407.41 C 388.93 422.79 400.41 438.02 411.82 453.32 C 415.74 458.43 420.04 463.27 423.59 468.67 C 409.54 468.67 395.46 468.68 381.43 468.57 C 366.85 450.60 352.91 432.09 339.02 413.58 C 331.27 420.74 323.79 428.20 316.38 435.71 C 316.42 446.67 316.45 457.63 316.46 468.59 C 304.68 468.73 292.90 468.49 281.12 468.64 C 281.14 462.08 281.29 455.52 280.87 448.98 C 280.60 419.00 280.83 389.02 280.80 359.04 C 280.87 352.05 280.67 345.05 281.12 338.06 C 281.21 318.96 281.12 299.86 281.16 280.76 Z" />
<path fill="#040403" opacity="1.00" d=" M 889.51 330.85 C 910.02 328.53 931.77 332.99 948.46 345.51 C 957.77 353.08 965.49 362.93 969.40 374.37 C 975.32 390.49 975.32 408.62 969.90 424.87 C 964.46 441.82 951.21 455.51 935.59 463.61 C 919.93 471.60 901.64 472.81 884.48 470.27 C 868.12 467.84 852.79 459.39 841.79 447.08 C 820.09 422.29 820.43 382.19 840.73 356.68 C 852.45 341.70 870.85 333.01 889.51 330.85 M 892.55 361.73 C 880.78 363.55 870.38 371.79 865.77 382.75 C 861.30 392.42 861.16 403.65 863.49 413.90 C 866.05 423.91 872.63 433.29 882.19 437.66 C 891.77 442.38 903.22 442.68 913.24 439.18 C 922.57 435.71 930.06 428.03 933.94 418.93 C 937.73 409.19 938.33 398.22 935.57 388.14 C 933.08 379.01 926.83 371.12 918.87 366.12 C 911.06 361.37 901.45 360.42 892.55 361.73 Z" />
</g>
<g id="#030302ff">
<path fill="#030302" opacity="1.00" d=" M 735.77 334.22 C 736.87 322.80 736.00 311.27 736.50 299.81 C 748.39 299.82 760.28 299.85 772.18 299.66 C 772.22 311.06 772.21 322.45 772.18 333.85 C 783.27 333.91 794.36 333.92 805.46 333.86 C 805.55 343.34 805.48 352.83 805.58 362.32 C 794.47 362.20 783.35 362.08 772.25 362.45 C 772.50 382.68 772.21 402.90 772.44 423.13 C 772.46 429.66 774.50 437.20 780.78 440.39 C 788.59 444.31 797.68 441.65 805.09 438.06 C 808.03 446.15 810.83 454.29 814.48 462.10 L 814.38 462.77 C 801.88 470.97 786.02 472.64 771.52 470.21 C 761.28 468.52 751.38 463.29 745.24 454.77 C 738.79 445.94 736.29 434.83 736.21 424.04 C 736.06 403.51 736.28 382.98 736.16 362.44 C 729.33 362.20 722.49 362.37 715.65 362.39 C 715.74 352.97 715.62 343.54 715.66 334.12 C 722.36 334.21 729.07 334.07 735.77 334.22 Z" />
</g>
<g id="#e07851ff">
<path fill="#e07851" opacity="1.00" d=" M 1309.28 304.38 C 1320.43 304.34 1331.59 304.39 1342.74 304.39 C 1342.64 318.60 1342.78 332.81 1342.74 347.02 C 1342.71 349.51 1343.04 351.98 1343.39 354.44 C 1360.43 354.40 1377.48 354.64 1394.52 354.34 L 1394.47 354.55 C 1392.22 364.60 1394.55 375.00 1393.12 385.15 C 1392.75 378.63 1392.52 372.10 1392.45 365.57 C 1392.45 362.92 1392.37 360.27 1392.32 357.63 C 1387.40 357.26 1382.47 357.44 1377.55 357.60 C 1370.72 357.63 1363.89 357.40 1357.08 356.81 C 1351.97 356.35 1346.77 357.23 1341.74 356.16 C 1340.76 355.00 1340.49 353.46 1340.14 352.05 C 1340.88 339.69 1340.12 327.31 1340.54 314.95 C 1340.28 312.26 1340.98 308.14 1337.90 306.91 C 1332.66 306.02 1327.31 306.75 1322.04 306.50 C 1318.86 306.61 1315.46 306.07 1312.51 307.45 C 1310.98 309.99 1311.55 313.17 1311.41 316.01 C 1311.47 328.87 1311.68 341.74 1311.32 354.60 C 1309.39 355.72 1307.32 356.78 1305.02 356.63 C 1299.57 356.60 1294.13 357.02 1288.69 357.06 C 1281.46 356.60 1274.22 356.62 1266.98 356.54 C 1264.78 356.58 1262.51 356.56 1260.49 357.48 C 1259.06 362.09 1259.84 366.98 1259.67 371.72 C 1259.48 376.51 1259.45 381.31 1259.96 386.09 C 1276.64 386.92 1293.38 385.59 1310.05 386.80 C 1308.60 388.86 1306.08 388.12 1304.03 388.31 C 1289.68 388.16 1275.32 388.32 1260.98 388.29 C 1259.49 388.50 1257.35 388.01 1257.79 386.03 C 1257.79 375.49 1257.52 364.93 1257.97 354.40 C 1274.85 354.50 1291.74 354.48 1308.63 354.33 C 1309.10 340.90 1308.24 327.44 1309.23 314.02 C 1309.30 310.81 1309.26 307.59 1309.28 304.38 Z" />
</g>
<g id="#ff7836ff">
<path fill="#ff7836" opacity="1.00" d=" M 1312.51 307.45 C 1315.46 306.07 1318.86 306.61 1322.04 306.50 C 1327.31 306.75 1332.66 306.02 1337.90 306.91 C 1340.98 308.14 1340.28 312.26 1340.54 314.95 C 1340.12 327.31 1340.88 339.69 1340.14 352.05 C 1339.22 353.47 1338.31 354.94 1336.98 356.01 C 1332.34 355.19 1327.74 354.18 1323.03 353.95 C 1319.31 355.10 1314.91 357.16 1311.32 354.60 C 1311.68 341.74 1311.47 328.87 1311.41 316.01 C 1311.55 313.17 1310.98 309.99 1312.51 307.45 Z" />
</g>
<g id="#020302ff">
<path fill="#020302" opacity="1.00" d=" M 125.55 344.98 C 144.32 334.14 166.44 329.66 188.00 330.58 C 203.34 331.43 219.27 335.58 230.91 346.12 C 241.71 356.30 246.37 371.39 246.55 385.93 C 246.59 413.43 246.33 440.93 246.56 468.43 C 234.99 468.55 223.42 468.52 211.85 468.42 C 211.84 463.79 211.87 459.16 211.83 454.53 C 207.94 458.43 203.95 462.37 198.98 464.89 C 186.13 471.50 171.07 472.86 156.92 470.81 C 145.29 469.20 134.17 463.48 126.64 454.40 C 118.87 444.99 116.92 431.78 119.46 420.08 C 121.82 408.57 130.08 398.58 140.68 393.65 C 150.20 389.48 160.79 389.38 170.99 388.88 C 183.81 388.71 196.63 388.81 209.45 389.17 C 209.69 382.51 208.33 375.39 203.70 370.34 C 198.65 364.31 190.70 361.75 183.08 361.19 C 166.98 359.75 150.79 364.15 136.69 371.80 C 133.32 362.73 129.78 353.69 125.55 344.98 M 160.86 414.91 C 154.65 418.55 152.06 426.81 154.43 433.49 C 156.62 440.21 163.29 444.44 169.95 445.79 C 177.65 447.29 185.87 446.96 193.22 444.07 C 200.61 441.24 206.82 435.07 209.07 427.43 C 210.39 422.10 210.12 416.57 210.13 411.14 C 200.09 411.04 190.06 411.19 180.03 411.24 C 173.53 411.38 166.56 411.34 160.86 414.91 Z" />
</g>
<g id="#020202ff">
<path fill="#020202" opacity="1.00" d=" M 618.75 334.79 C 633.99 330.00 650.30 329.93 666.04 331.90 C 677.99 333.61 689.80 337.07 700.48 342.78 C 696.46 351.29 693.30 360.15 690.16 369.01 C 675.97 361.71 659.87 358.44 643.96 358.80 C 637.50 359.13 630.46 359.99 625.41 364.45 C 621.61 367.66 619.96 373.72 622.90 378.02 C 625.96 382.06 631.18 383.24 635.83 384.45 C 649.85 387.32 664.14 389.08 677.83 393.40 C 685.82 396.09 693.63 400.47 698.54 407.54 C 706.29 418.44 706.25 433.64 700.19 445.30 C 695.55 454.66 686.65 461.10 677.22 465.09 C 660.70 471.85 642.32 472.64 624.81 470.21 C 610.44 468.29 596.20 463.86 583.94 455.98 C 587.73 447.45 591.82 439.04 594.99 430.25 C 609.86 440.42 628.23 444.24 646.02 444.12 C 652.33 443.61 659.20 443.41 664.60 439.68 C 670.08 436.05 671.12 427.27 666.39 422.63 C 663.01 419.51 658.34 418.48 654.00 417.46 C 638.26 413.93 621.66 413.15 606.86 406.21 C 598.00 402.16 590.92 394.19 588.59 384.66 C 586.20 374.59 587.01 363.38 592.41 354.37 C 598.00 344.48 608.24 338.32 618.75 334.79 Z" />
</g>
<g id="#fe6a3eff">
<path fill="#fe6a3e" opacity="1.00" d=" M 1336.98 356.01 C 1338.31 354.94 1339.22 353.47 1340.14 352.05 C 1340.49 353.46 1340.76 355.00 1341.74 356.16 C 1346.77 357.23 1351.97 356.35 1357.08 356.81 C 1363.89 357.40 1370.72 357.63 1377.55 357.60 C 1375.81 359.20 1374.26 361.20 1372.01 362.08 C 1368.46 362.78 1364.70 361.85 1361.27 363.25 C 1350.77 367.48 1339.52 369.60 1328.28 370.54 C 1325.33 370.88 1322.57 372.05 1319.66 372.49 C 1316.73 372.88 1313.89 371.74 1310.99 371.78 C 1308.25 372.23 1305.57 373.56 1302.75 372.76 C 1294.43 371.07 1286.02 372.89 1277.91 374.75 C 1275.25 375.40 1272.88 373.76 1270.41 373.14 C 1268.09 373.63 1266.08 375.04 1263.99 376.10 C 1262.54 374.63 1261.11 373.17 1259.67 371.72 C 1259.84 366.98 1259.06 362.09 1260.49 357.48 C 1262.51 356.56 1264.78 356.58 1266.98 356.54 C 1274.22 356.62 1281.46 356.60 1288.69 357.06 C 1294.13 357.02 1299.57 356.60 1305.02 356.63 C 1307.32 356.78 1309.39 355.72 1311.32 354.60 C 1314.91 357.16 1319.31 355.10 1323.03 353.95 C 1327.74 354.18 1332.34 355.19 1336.98 356.01 Z" />
</g>
<g id="#cf6c66ff">
<path fill="#cf6c66" opacity="1.00" d=" M 1393.12 385.15 C 1394.55 375.00 1392.22 364.60 1394.47 354.55 C 1394.90 365.72 1394.53 376.91 1394.65 388.09 C 1377.52 388.50 1360.37 388.25 1343.24 388.25 C 1342.27 400.15 1343.75 412.11 1343.08 424.04 C 1342.64 429.09 1343.38 434.14 1343.20 439.20 C 1331.72 439.44 1320.24 439.31 1308.77 439.31 C 1308.64 423.87 1308.87 408.43 1308.71 392.99 C 1308.88 390.89 1308.16 388.39 1310.05 386.80 C 1310.54 390.99 1310.89 395.20 1311.09 399.42 C 1310.09 408.25 1310.82 417.14 1310.51 426.00 C 1310.59 429.62 1309.97 433.41 1311.22 436.88 C 1313.70 437.81 1316.41 437.52 1319.03 437.58 C 1326.32 437.34 1333.65 437.94 1340.92 436.93 C 1341.04 423.61 1341.53 410.28 1340.91 396.96 C 1340.78 393.79 1341.15 390.63 1341.56 387.49 C 1349.95 385.77 1358.55 386.98 1367.04 386.61 C 1375.43 386.29 1383.89 387.14 1392.23 386.22 C 1392.46 385.95 1392.90 385.42 1393.12 385.15 Z" />
<path fill="#cf6c66" opacity="1.00" d=" M 219.54 505.26 C 235.48 505.17 251.43 505.36 267.37 505.23 C 266.46 511.77 266.41 518.39 265.59 524.94 C 265.15 532.01 264.50 539.51 267.58 546.13 C 272.14 556.72 283.51 563.68 294.93 563.68 C 339.64 563.67 384.35 563.76 429.05 563.71 C 430.20 563.66 431.34 563.77 432.47 564.05 C 432.83 569.64 432.93 575.50 435.62 580.58 C 436.61 582.60 438.37 584.15 439.40 586.14 C 439.40 586.68 439.41 587.76 439.41 588.29 C 436.42 585.66 433.87 582.41 432.57 578.61 C 431.25 574.81 431.55 570.64 430.16 566.87 C 428.55 565.27 426.08 565.59 424.02 565.42 C 381.01 565.58 338.00 565.33 294.99 565.42 C 287.23 565.41 279.66 562.27 273.75 557.33 C 266.97 551.68 263.16 542.81 263.33 534.03 C 263.01 525.12 265.62 516.35 264.68 507.44 C 257.47 506.59 250.20 507.00 242.97 506.70 C 235.72 506.72 228.44 506.28 221.23 507.23 C 219.07 522.28 217.81 537.43 216.20 552.55 C 214.05 566.44 217.78 581.32 226.79 592.21 C 231.70 598.11 237.86 602.94 244.69 606.44 C 244.13 606.48 243.01 606.56 242.44 606.60 C 233.37 602.40 225.97 594.80 220.86 586.24 C 214.20 575.14 212.82 561.43 215.16 548.92 C 215.82 548.10 216.02 547.20 215.75 546.21 C 215.37 543.80 215.32 541.24 216.17 538.94 C 216.85 538.13 217.05 537.22 216.79 536.23 C 216.41 534.18 216.37 532.04 216.99 530.04 C 217.15 529.54 217.45 528.54 217.61 528.04 C 217.29 525.06 217.52 522.02 218.02 519.07 C 218.19 518.57 218.51 517.58 218.67 517.09 C 218.17 513.12 219.11 509.18 219.54 505.26 Z" />
</g>
<g id="#fe5f46ff">
<path fill="#fe5f46" opacity="1.00" d=" M 1377.55 357.60 C 1382.47 357.44 1387.40 357.26 1392.32 357.63 C 1392.37 360.27 1392.45 362.92 1392.45 365.57 C 1391.14 368.95 1390.31 373.01 1387.29 375.32 C 1384.41 376.33 1381.29 376.07 1378.31 376.27 C 1378.70 377.30 1379.11 378.32 1379.54 379.35 C 1372.04 380.64 1364.63 382.54 1357.02 383.12 C 1351.73 383.75 1346.39 383.76 1341.12 384.36 C 1337.83 384.54 1336.46 389.44 1333.00 388.43 C 1329.61 387.59 1326.24 388.65 1322.93 389.27 C 1320.13 390.42 1317.18 391.12 1314.20 391.47 C 1313.32 389.86 1312.47 388.26 1311.63 386.66 C 1312.26 390.91 1312.23 395.25 1311.09 399.42 C 1310.89 395.20 1310.54 390.99 1310.05 386.80 C 1293.38 385.59 1276.64 386.92 1259.96 386.09 C 1259.45 381.31 1259.48 376.51 1259.67 371.72 C 1261.11 373.17 1262.54 374.63 1263.99 376.10 C 1266.08 375.04 1268.09 373.63 1270.41 373.14 C 1272.88 373.76 1275.25 375.40 1277.91 374.75 C 1286.02 372.89 1294.43 371.07 1302.75 372.76 C 1305.57 373.56 1308.25 372.23 1310.99 371.78 C 1313.89 371.74 1316.73 372.88 1319.66 372.49 C 1322.57 372.05 1325.33 370.88 1328.28 370.54 C 1339.52 369.60 1350.77 367.48 1361.27 363.25 C 1364.70 361.85 1368.46 362.78 1372.01 362.08 C 1374.26 361.20 1375.81 359.20 1377.55 357.60 Z" />
</g>
<g id="#ffffffff">
</g>
<g id="#fd514fff">
<path fill="#fd514f" opacity="1.00" d=" M 1392.45 365.57 C 1392.52 372.10 1392.75 378.63 1393.12 385.15 C 1392.90 385.42 1392.46 385.95 1392.23 386.22 C 1383.89 387.14 1375.43 386.29 1367.04 386.61 C 1358.55 386.98 1349.95 385.77 1341.56 387.49 C 1341.15 390.63 1340.78 393.79 1340.91 396.96 C 1341.53 410.28 1341.04 423.61 1340.92 436.93 C 1333.65 437.94 1326.32 437.34 1319.03 437.58 C 1316.41 437.52 1313.70 437.81 1311.22 436.88 C 1309.97 433.41 1310.59 429.62 1310.51 426.00 C 1310.82 417.14 1310.09 408.25 1311.09 399.42 C 1312.23 395.25 1312.26 390.91 1311.63 386.66 C 1312.47 388.26 1313.32 389.86 1314.20 391.47 C 1317.18 391.12 1320.13 390.42 1322.93 389.27 C 1326.24 388.65 1329.61 387.59 1333.00 388.43 C 1336.46 389.44 1337.83 384.54 1341.12 384.36 C 1346.39 383.76 1351.73 383.75 1357.02 383.12 C 1364.63 382.54 1372.04 380.64 1379.54 379.35 C 1379.11 378.32 1378.70 377.30 1378.31 376.27 C 1381.29 376.07 1384.41 376.33 1387.29 375.32 C 1390.31 373.01 1391.14 368.95 1392.45 365.57 Z" />
</g>
<g id="#41b4d3ff">
<path fill="#41b4d3" opacity="1.00" d=" M 498.47 494.69 C 509.05 494.66 519.64 494.67 530.22 494.69 C 530.39 509.67 530.14 524.64 530.31 539.62 C 545.62 539.75 560.92 539.51 576.22 539.71 C 576.25 550.31 576.28 560.91 576.18 571.51 C 563.44 571.10 550.70 571.43 537.96 571.46 C 535.04 571.46 532.13 571.15 529.26 570.67 C 535.17 568.06 541.78 569.56 548.02 569.23 C 556.53 568.93 565.11 569.93 573.57 568.63 C 573.47 561.41 574.52 554.22 574.31 547.00 C 574.20 544.74 574.17 541.45 571.06 541.68 C 559.06 541.24 547.02 541.70 535.01 541.54 C 532.85 541.44 530.75 541.00 528.66 540.54 C 528.54 538.04 528.40 535.54 528.34 533.04 C 528.11 520.99 528.91 508.93 528.16 496.90 C 518.92 496.51 509.63 496.30 500.40 497.11 C 500.88 510.95 500.04 524.84 501.21 538.64 C 500.02 539.87 498.77 541.37 496.92 541.49 C 482.85 543.26 468.61 540.37 454.57 542.71 C 454.54 542.09 454.48 540.85 454.45 540.23 C 468.79 539.74 483.19 540.82 497.51 539.72 C 497.76 539.70 498.26 539.64 498.51 539.61 C 498.44 524.64 498.52 509.66 498.47 494.69 Z" />
</g>
<g id="#fc4d46ff">
<path fill="#fc4d46" opacity="1.00" d=" M 221.23 507.23 C 228.44 506.28 235.72 506.72 242.97 506.70 C 250.20 507.00 257.47 506.59 264.68 507.44 C 265.62 516.35 263.01 525.12 263.33 534.03 C 263.16 542.81 266.97 551.68 273.75 557.33 C 279.66 562.27 287.23 565.41 294.99 565.42 C 338.00 565.33 381.01 565.58 424.02 565.42 C 426.08 565.59 428.55 565.27 430.16 566.87 C 431.55 570.64 431.25 574.81 432.57 578.61 C 433.87 582.41 436.42 585.66 439.41 588.29 C 444.87 593.56 452.84 594.00 460.00 593.62 C 464.46 593.78 469.21 592.77 473.47 594.49 C 475.26 599.64 474.24 605.22 474.46 610.57 C 472.31 610.91 470.15 611.26 467.98 611.35 C 400.32 611.15 332.66 611.42 265.00 611.38 C 257.90 611.44 251.22 608.90 244.69 606.44 C 237.86 602.94 231.70 598.11 226.79 592.21 C 217.78 581.32 214.05 566.44 216.20 552.55 C 217.81 537.43 219.07 522.28 221.23 507.23 Z" />
</g>
<g id="#ea8e8aff">
<path fill="#ea8e8a" opacity="1.00" d=" M 217.80 517.32 L 218.67 517.09 C 218.51 517.58 218.19 518.57 218.02 519.07 L 217.47 518.34 L 217.80 517.32 Z" />
</g>
<g id="#d68682ff">
<path fill="#d68682" opacity="1.00" d=" M 216.74 528.30 L 217.61 528.04 C 217.45 528.54 217.15 529.54 216.99 530.04 L 216.42 529.33 L 216.74 528.30 Z" />
</g>
<g id="#24bcedff">
<path fill="#24bced" opacity="1.00" d=" M 519.22 530.42 C 521.97 532.14 525.11 532.95 528.34 533.04 C 528.40 535.54 528.54 538.04 528.66 540.54 C 530.75 541.00 532.85 541.44 535.01 541.54 C 547.02 541.70 559.06 541.24 571.06 541.68 C 574.17 541.45 574.20 544.74 574.31 547.00 C 574.52 554.22 573.47 561.41 573.57 568.63 C 565.11 569.93 556.53 568.93 548.02 569.23 C 541.78 569.56 535.17 568.06 529.26 570.67 C 532.13 571.15 535.04 571.46 537.96 571.46 C 550.70 571.43 563.44 571.10 576.18 571.51 C 560.72 571.76 545.25 571.40 529.79 571.74 C 527.68 573.39 525.69 575.33 523.14 576.28 C 518.58 575.66 514.44 573.40 510.37 571.39 C 508.94 572.38 507.53 573.44 505.98 574.23 C 503.57 573.04 501.78 570.94 499.47 569.61 C 497.06 568.91 494.50 569.19 492.03 569.18 C 483.37 569.51 474.71 569.14 466.05 569.35 C 463.14 569.32 460.16 569.53 457.35 568.73 C 454.95 566.96 454.78 563.72 454.71 561.02 C 454.69 554.91 454.98 548.81 454.57 542.71 C 468.61 540.37 482.85 543.26 496.92 541.49 C 498.77 541.37 500.02 539.87 501.21 538.64 C 502.61 536.29 503.72 533.79 504.81 531.29 C 508.82 531.19 512.66 532.48 516.61 532.90 C 517.32 533.50 518.04 534.12 518.77 534.74 C 518.91 533.29 519.06 531.85 519.22 530.42 Z" />
</g>
<g id="#e98c87ff">
<path fill="#e98c87" opacity="1.00" d=" M 216.17 538.94 C 214.94 537.59 215.14 536.68 216.79 536.23 C 217.05 537.22 216.85 538.13 216.17 538.94 Z" />
</g>
<g id="#d88683ff">
<path fill="#d88683" opacity="1.00" d=" M 215.16 548.92 C 213.91 547.59 214.11 546.68 215.75 546.21 C 216.02 547.20 215.82 548.10 215.16 548.92 Z" />
</g>
<g id="#d36164ff">
<path fill="#d36164" opacity="1.00" d=" M 439.41 588.29 C 439.41 587.76 439.40 586.68 439.40 586.14 C 442.34 588.24 445.34 590.47 448.94 591.32 C 457.75 592.85 466.70 592.04 475.57 591.67 C 476.92 598.55 475.88 605.61 476.31 612.57 C 470.27 613.79 464.08 613.00 457.97 613.21 C 443.63 613.37 429.30 612.97 414.97 613.07 C 366.68 613.43 318.37 613.16 270.07 613.30 C 260.52 613.47 250.68 611.63 242.44 606.60 C 243.01 606.56 244.13 606.48 244.69 606.44 C 251.22 608.90 257.90 611.44 265.00 611.38 C 332.66 611.42 400.32 611.15 467.98 611.35 C 470.15 611.26 472.31 610.91 474.46 610.57 C 474.24 605.22 475.26 599.64 473.47 594.49 C 469.21 592.77 464.46 593.78 460.00 593.62 C 452.84 594.00 444.87 593.56 439.41 588.29 Z" />
</g>
</svg>
